<svg width="632" height="399" viewBox="0 0 632 399" fill="none" xmlns="http://www.w3.org/2000/svg">
<path d="M40 26V365C40 378.807 51.1929 390 65 390H565C578.807 390 590 378.807 590 365V26C590 12.1929 578.807 1 565 1H65C51.1929 1 40 12.1929 40 26Z" fill="black" stroke="black"/>
<g filter="url(#filter0_d_55_282)">
<path d="M5 387.502V381C5 379.895 5.89543 379 7 379H273C272.6 382.6 276.5 385.167 278.5 386H354C358.4 386 360.167 381.333 360.5 379H625.5C626.605 379 627.5 379.895 627.5 381V387.998C627.5 389.104 626.604 389.999 625.498 389.998L6.99839 389.502C5.89445 389.501 5 388.606 5 387.502Z" fill="#D9D9D9"/>
<path d="M5 387.502V381C5 379.895 5.89543 379 7 379H273C272.6 382.6 276.5 385.167 278.5 386H354C358.4 386 360.167 381.333 360.5 379H625.5C626.605 379 627.5 379.895 627.5 381V387.998C627.5 389.104 626.604 389.999 625.498 389.998L6.99839 389.502C5.89445 389.501 5 388.606 5 387.502Z" stroke="#D9D9D9"/>
</g>
<path d="M33 394C26.2 394.4 13.8333 391.833 8.5 390.5L7 390H628L602.5 394.5C588.1 392.5 573.5 395.333 568 397H67C59.4 394.2 41.1667 393.833 33 394Z" fill="#171717" stroke="#171717"/>
<path d="M33 393.413C35.1667 396.413 44.2 400.913 63 394.913C55.1667 393.913 38.2 392.213 33 393.413Z" fill="black" stroke="black"/>
<path d="M599 393.413C596.833 396.413 587.8 400.913 569 394.913C576.833 393.913 593.8 392.213 599 393.413Z" fill="black" stroke="black"/>
<path d="M590.113 371H41.1094C39.1002 374.765 40.2722 377.902 41.1094 379H590.113C591.72 374.859 590.782 371.941 590.113 371Z" fill="#272827" stroke="#272827"/>
<path d="M273 380H360C359.5 382.307 357.3 386.922 352.5 386.922H282C275.6 386.922 273.333 382.307 273 380Z" fill="#686969" stroke="#686969"/>
<path d="M291.616 372.909H292.352L294.082 377.135H294.142L295.872 372.909H296.608V378H296.031V374.132H295.982L294.391 378H293.834L292.243 374.132H292.193V378H291.616V372.909ZM298.888 378.089C298.646 378.089 298.427 378.044 298.229 377.953C298.032 377.86 297.876 377.727 297.759 377.553C297.643 377.377 297.585 377.165 297.585 376.916C297.585 376.697 297.629 376.52 297.715 376.384C297.801 376.247 297.916 376.139 298.06 376.061C298.204 375.983 298.364 375.925 298.538 375.887C298.713 375.847 298.89 375.816 299.067 375.793C299.299 375.763 299.487 375.74 299.631 375.725C299.777 375.709 299.883 375.682 299.949 375.643C300.017 375.605 300.051 375.539 300.051 375.445V375.425C300.051 375.179 299.984 374.989 299.85 374.853C299.717 374.717 299.516 374.649 299.246 374.649C298.966 374.649 298.746 374.71 298.587 374.833C298.428 374.956 298.316 375.087 298.252 375.226L297.695 375.027C297.794 374.795 297.927 374.614 298.093 374.485C298.26 374.354 298.442 374.263 298.639 374.212C298.838 374.159 299.034 374.132 299.226 374.132C299.349 374.132 299.49 374.147 299.649 374.177C299.809 374.205 299.964 374.264 300.114 374.353C300.264 374.443 300.389 374.578 300.489 374.759C300.588 374.939 300.638 375.181 300.638 375.484V378H300.051V377.483H300.022C299.982 377.566 299.916 377.654 299.823 377.749C299.73 377.843 299.606 377.924 299.452 377.99C299.298 378.056 299.11 378.089 298.888 378.089ZM298.978 377.562C299.21 377.562 299.405 377.517 299.564 377.426C299.725 377.335 299.846 377.217 299.927 377.073C300.01 376.929 300.051 376.777 300.051 376.618V376.081C300.027 376.111 299.972 376.138 299.887 376.163C299.804 376.186 299.708 376.207 299.599 376.225C299.491 376.242 299.386 376.257 299.283 376.27C299.182 376.281 299.1 376.291 299.037 376.3C298.885 376.32 298.742 376.352 298.61 376.397C298.479 376.44 298.373 376.505 298.291 376.593C298.212 376.679 298.172 376.797 298.172 376.946C298.172 377.15 298.248 377.304 298.398 377.408C298.551 377.511 298.744 377.562 298.978 377.562ZM303.26 378.08C302.902 378.08 302.594 377.995 302.335 377.826C302.077 377.657 301.878 377.424 301.739 377.127C301.599 376.831 301.53 376.492 301.53 376.111C301.53 375.723 301.601 375.381 301.744 375.084C301.888 374.786 302.088 374.553 302.345 374.386C302.604 374.217 302.905 374.132 303.25 374.132C303.518 374.132 303.76 374.182 303.976 374.281C304.191 374.381 304.368 374.52 304.505 374.699C304.643 374.878 304.728 375.087 304.761 375.325H304.175C304.13 375.151 304.031 374.997 303.876 374.863C303.724 374.727 303.518 374.659 303.26 374.659C303.031 374.659 302.831 374.719 302.658 374.838C302.488 374.956 302.354 375.122 302.258 375.338C302.164 375.551 302.116 375.803 302.116 376.091C302.116 376.386 302.163 376.643 302.256 376.862C302.35 377.08 302.483 377.25 302.653 377.371C302.826 377.492 303.028 377.553 303.26 377.553C303.412 377.553 303.551 377.526 303.675 377.473C303.799 377.42 303.905 377.344 303.991 377.244C304.077 377.145 304.138 377.026 304.175 376.886H304.761C304.728 377.112 304.646 377.315 304.515 377.495C304.386 377.674 304.214 377.817 304.001 377.923C303.789 378.027 303.542 378.08 303.26 378.08ZM306.166 376.608L306.156 375.882H306.275L307.946 374.182H308.672L306.892 375.982H306.842L306.166 376.608ZM305.619 378V372.909H306.206V378H305.619ZM308.045 378L306.554 376.111L306.971 375.703L308.791 378H308.045ZM309.506 378V372.909H311.286C311.641 372.909 311.933 372.97 312.163 373.093C312.394 373.214 312.565 373.377 312.678 373.583C312.791 373.787 312.847 374.013 312.847 374.261C312.847 374.48 312.808 374.661 312.73 374.803C312.654 374.946 312.553 375.058 312.427 375.141C312.303 375.224 312.168 375.286 312.022 375.325V375.375C312.178 375.385 312.334 375.44 312.492 375.539C312.649 375.638 312.781 375.781 312.887 375.967C312.993 376.152 313.046 376.379 313.046 376.648C313.046 376.903 312.988 377.132 312.872 377.336C312.756 377.54 312.573 377.702 312.323 377.821C312.072 377.94 311.747 378 311.346 378H309.506ZM310.123 377.453H311.346C311.748 377.453 312.034 377.375 312.203 377.219C312.374 377.062 312.459 376.871 312.459 376.648C312.459 376.475 312.415 376.316 312.328 376.17C312.24 376.023 312.115 375.905 311.952 375.817C311.79 375.728 311.598 375.683 311.375 375.683H310.123V377.453ZM310.123 375.146H311.266C311.452 375.146 311.619 375.11 311.768 375.037C311.919 374.964 312.038 374.861 312.126 374.729C312.216 374.596 312.26 374.44 312.26 374.261C312.26 374.038 312.182 373.848 312.027 373.692C311.871 373.535 311.624 373.456 311.286 373.456H310.123V375.146ZM315.53 378.08C315.186 378.08 314.883 377.998 314.623 377.833C314.365 377.669 314.162 377.44 314.017 377.145C313.872 376.85 313.8 376.505 313.8 376.111C313.8 375.713 313.872 375.366 314.017 375.069C314.162 374.773 314.365 374.542 314.623 374.378C314.883 374.214 315.186 374.132 315.53 374.132C315.875 374.132 316.177 374.214 316.435 374.378C316.695 374.542 316.898 374.773 317.042 375.069C317.188 375.366 317.261 375.713 317.261 376.111C317.261 376.505 317.188 376.85 317.042 377.145C316.898 377.44 316.695 377.669 316.435 377.833C316.177 377.998 315.875 378.08 315.53 378.08ZM315.53 377.553C315.792 377.553 316.008 377.485 316.177 377.351C316.346 377.217 316.471 377.04 316.552 376.822C316.633 376.603 316.674 376.366 316.674 376.111C316.674 375.856 316.633 375.618 316.552 375.397C316.471 375.177 316.346 374.999 316.177 374.863C316.008 374.727 315.792 374.659 315.53 374.659C315.269 374.659 315.053 374.727 314.884 374.863C314.715 374.999 314.59 375.177 314.509 375.397C314.428 375.618 314.387 375.856 314.387 376.111C314.387 376.366 314.428 376.603 314.509 376.822C314.59 377.04 314.715 377.217 314.884 377.351C315.053 377.485 315.269 377.553 315.53 377.553ZM319.707 378.08C319.363 378.08 319.06 377.998 318.8 377.833C318.541 377.669 318.339 377.44 318.193 377.145C318.049 376.85 317.977 376.505 317.977 376.111C317.977 375.713 318.049 375.366 318.193 375.069C318.339 374.773 318.541 374.542 318.8 374.378C319.06 374.214 319.363 374.132 319.707 374.132C320.052 374.132 320.354 374.214 320.612 374.378C320.872 374.542 321.074 374.773 321.219 375.069C321.364 375.366 321.437 375.713 321.437 376.111C321.437 376.505 321.364 376.85 321.219 377.145C321.074 377.44 320.872 377.669 320.612 377.833C320.354 377.998 320.052 378.08 319.707 378.08ZM319.707 377.553C319.969 377.553 320.184 377.485 320.354 377.351C320.523 377.217 320.648 377.04 320.729 376.822C320.81 376.603 320.851 376.366 320.851 376.111C320.851 375.856 320.81 375.618 320.729 375.397C320.648 375.177 320.523 374.999 320.354 374.863C320.184 374.727 319.969 374.659 319.707 374.659C319.445 374.659 319.23 374.727 319.061 374.863C318.892 374.999 318.767 375.177 318.686 375.397C318.604 375.618 318.564 375.856 318.564 376.111C318.564 376.366 318.604 376.603 318.686 376.822C318.767 377.04 318.892 377.217 319.061 377.351C319.23 377.485 319.445 377.553 319.707 377.553ZM322.88 376.608L322.87 375.882H322.989L324.66 374.182H325.385L323.606 375.982H323.556L322.88 376.608ZM322.333 378V372.909H322.919V378H322.333ZM324.759 378L323.267 376.111L323.685 375.703L325.505 378H324.759ZM328.189 378V372.909H329.909C330.308 372.909 330.635 372.981 330.888 373.125C331.144 373.268 331.332 373.461 331.455 373.705C331.578 373.948 331.639 374.22 331.639 374.52C331.639 374.82 331.578 375.092 331.455 375.338C331.334 375.583 331.147 375.779 330.893 375.924C330.64 376.069 330.315 376.141 329.919 376.141H328.686V375.594H329.899C330.172 375.594 330.392 375.547 330.558 375.452C330.723 375.358 330.844 375.23 330.918 375.069C330.994 374.907 331.032 374.724 331.032 374.52C331.032 374.316 330.994 374.134 330.918 373.973C330.844 373.812 330.723 373.686 330.555 373.595C330.388 373.502 330.166 373.456 329.889 373.456H328.805V378H328.189ZM332.553 378V374.182H333.119V374.759H333.159C333.229 374.57 333.355 374.416 333.537 374.299C333.719 374.181 333.925 374.122 334.153 374.122C334.196 374.122 334.25 374.123 334.315 374.125C334.38 374.126 334.429 374.129 334.462 374.132V374.729C334.442 374.724 334.396 374.716 334.325 374.706C334.255 374.695 334.182 374.689 334.104 374.689C333.918 374.689 333.752 374.728 333.607 374.806C333.462 374.882 333.348 374.988 333.263 375.124C333.181 375.258 333.139 375.411 333.139 375.584V378H332.553ZM336.592 378.08C336.247 378.08 335.945 377.998 335.685 377.833C335.426 377.669 335.224 377.44 335.078 377.145C334.934 376.85 334.862 376.505 334.862 376.111C334.862 375.713 334.934 375.366 335.078 375.069C335.224 374.773 335.426 374.542 335.685 374.378C335.945 374.214 336.247 374.132 336.592 374.132C336.937 374.132 337.238 374.214 337.497 374.378C337.757 374.542 337.959 374.773 338.103 375.069C338.249 375.366 338.322 375.713 338.322 376.111C338.322 376.505 338.249 376.85 338.103 377.145C337.959 377.44 337.757 377.669 337.497 377.833C337.238 377.998 336.937 378.08 336.592 378.08ZM336.592 377.553C336.854 377.553 337.069 377.485 337.238 377.351C337.407 377.217 337.532 377.04 337.614 376.822C337.695 376.603 337.735 376.366 337.735 376.111C337.735 375.856 337.695 375.618 337.614 375.397C337.532 375.177 337.407 374.999 337.238 374.863C337.069 374.727 336.854 374.659 336.592 374.659C336.33 374.659 336.115 374.727 335.946 374.863C335.777 374.999 335.652 375.177 335.57 375.397C335.489 375.618 335.449 375.856 335.449 376.111C335.449 376.366 335.489 376.603 335.57 376.822C335.652 377.04 335.777 377.217 335.946 377.351C336.115 377.485 336.33 377.553 336.592 377.553Z" fill="#BABABA"/>
<defs>
<filter id="filter0_d_55_282" x="0.5" y="378.5" width="631.5" height="19.9985" filterUnits="userSpaceOnUse" color-interpolation-filters="sRGB">
<feFlood flood-opacity="0" result="BackgroundImageFix"/>
<feColorMatrix in="SourceAlpha" type="matrix" values="0 0 0 0 0 0 0 0 0 0 0 0 0 0 0 0 0 0 127 0" result="hardAlpha"/>
<feOffset dy="4"/>
<feGaussianBlur stdDeviation="2"/>
<feComposite in2="hardAlpha" operator="out"/>
<feColorMatrix type="matrix" values="0 0 0 0 0 0 0 0 0 0 0 0 0 0 0 0 0 0 0.25 0"/>
<feBlend mode="normal" in2="BackgroundImageFix" result="effect1_dropShadow_55_282"/>
<feBlend mode="normal" in="SourceGraphic" in2="effect1_dropShadow_55_282" result="shape"/>
</filter>
</defs>
</svg>
