<svg width="289" height="283" viewBox="0 0 289 283" fill="none" xmlns="http://www.w3.org/2000/svg">
<path d="M1.08634 201.713L1.21656 80.9999C1.26422 36.8172 37.1201 1.03864 81.3028 1.0863L208.025 1.223C252.207 1.27066 287.986 37.1265 287.938 81.3092L287.808 202.022C287.76 246.205 251.905 281.983 207.722 281.936L81 281.799C36.8172 281.751 1.03868 245.895 1.08634 201.713Z" fill="black" stroke="black"/>
<g filter="url(#filter0_d_44_69)">
<path d="M132.347 136.708H86.9069L78.2993 145.142H132.347V136.708Z" fill="#FF0000" stroke="#FF0000"/>
<g filter="url(#filter1_d_44_69)">
<path d="M38.8443 120.949C57.0037 95.0023 89.9116 102.566 103.279 110.353L94.3789 120.949C70.3982 105.838 53.8055 119.437 48.5067 128.126C25.9794 165.045 53.8055 165.061 70.5345 160.454L60.9967 172.635C31.2353 177.398 16.1449 153.383 38.8443 120.949Z" fill="white"/>
<path d="M38.8443 120.949C57.0037 95.0023 89.9116 102.566 103.279 110.353L94.3789 120.949C70.3982 105.838 53.8055 119.437 48.5067 128.126C25.9794 165.045 53.8055 165.061 70.5345 160.454L60.9967 172.635C31.2353 177.398 16.1449 153.383 38.8443 120.949Z" stroke="white"/>
</g>
<path d="M183.594 158.086C163.903 184.039 128.22 176.473 113.725 168.685L123.376 158.086C149.379 173.201 167.371 159.599 173.117 150.908C197.544 113.981 167.371 113.966 149.231 118.574L159.573 106.39C191.845 101.626 208.208 125.646 183.594 158.086Z" fill="white" stroke="white"/>
<path d="M250.829 164.166C232.669 190.113 199.761 182.55 186.394 174.763L195.294 164.166C219.275 179.278 235.867 165.678 241.166 156.99C263.693 120.07 235.867 120.055 219.138 124.662L228.676 112.48C258.438 107.717 273.528 131.733 250.829 164.166Z" fill="white" stroke="white"/>
<path d="M182.885 163.907V173.452V235.591H195.602V163.907H182.885Z" fill="white"/>
<path d="M182.885 173.452V163.907M182.885 163.907H195.602V235.591H182.885V163.907Z" stroke="white"/>
<path d="M198.657 187.308V190.615V207.371C198.657 210.005 200.792 212.14 203.426 212.14C206.06 212.14 208.195 210.005 208.195 207.371V196.846C208.195 191.579 203.924 187.308 198.657 187.308Z" fill="white"/>
<path d="M198.657 190.615V187.308M198.657 187.308V187.308C203.924 187.308 208.195 191.579 208.195 196.846V207.371C208.195 210.005 206.06 212.14 203.426 212.14V212.14C200.792 212.14 198.657 210.005 198.657 207.371V187.308Z" stroke="black"/>
<path d="M80.2477 120.902C77.8454 119.303 75.8048 118.612 74.0782 118.466C70.3799 118.153 65.2301 119.987 62.9293 122.9C61.2632 125.009 65.0568 124.746 67.7337 124.505C74.5088 123.894 84.7868 123.923 80.2477 120.902Z" fill="white" stroke="black"/>
<path d="M136.646 158.25C139.048 159.849 141.089 160.54 142.816 160.686C146.514 160.999 151.664 159.165 153.964 156.252C155.631 154.143 151.837 154.406 149.16 154.647C142.385 155.258 132.107 155.229 136.646 158.25Z" fill="white" stroke="white"/>
<path d="M135.526 136.708H87.4132L78.2993 145.142H135.526V136.708Z" fill="#FF1A1A" stroke="#FF1A1A"/>
<path d="M70.1138 236.115C68.6014 238.355 66.866 238.031 66.1873 237.589C64.6749 236.409 65.3633 234.444 65.8965 233.609C101.477 184.031 173.693 85.1963 174.819 83.4028C175.837 81.7813 177.243 81.8796 177.582 81.9287C179.763 82.6657 179.375 84.5329 178.891 85.4664L70.1138 236.115Z" fill="#FF1A1A" stroke="#FF1A1A"/>
<path d="M51.1138 191.115C49.6014 193.355 47.866 193.031 47.1873 192.589C45.6749 191.41 46.3633 189.444 46.8965 188.609C82.4768 139.032 154.693 40.1965 155.819 38.4029C156.837 36.7814 158.243 36.8797 158.582 36.9288C160.763 37.6659 160.375 39.533 159.891 40.4666L51.1138 191.115Z" fill="#FF1A1A" stroke="#FF1A1A"/>
<path d="M158.764 71.7272C161.012 70.7234 160.765 68.2888 160.069 66.8763C159.837 65.9272 158.82 63.3385 156.608 60.5768C155.815 59.6712 154.113 59.0938 153.651 64.0293L153.38 68.1406C153.255 72.2935 156.917 72.2621 158.764 71.7272Z" fill="#FF1A1A" stroke="#FF1A1A"/>
</g>
<g filter="url(#filter2_d_44_69)">
<path d="M176.681 46.5397C175.995 44.1759 173.549 44.0857 172.055 44.5815C171.083 44.6811 168.379 45.3332 165.34 47.1447C164.334 47.8061 163.528 49.4128 168.354 50.5482L172.389 51.3806C176.485 52.0751 176.957 48.4427 176.681 46.5397Z" fill="#FF1A1A"/>
<path d="M176.681 46.5397C175.995 44.1759 173.549 44.0857 172.055 44.5815C171.083 44.6811 168.379 45.3332 165.34 47.1447C164.334 47.8061 163.528 49.4128 168.354 50.5482L172.389 51.3806C176.485 52.0751 176.957 48.4427 176.681 46.5397Z" stroke="#FF1A1A"/>
</g>
<g filter="url(#filter3_d_44_69)">
<path d="M128.544 39.482C128.073 41.8979 130.207 43.0959 131.763 43.3382C132.673 43.6939 135.376 44.3499 138.907 44.1279C140.104 43.9995 141.555 42.9387 137.782 39.7231L134.574 37.1382C131.248 34.648 129.168 37.6632 128.544 39.482Z" fill="#FF1A1A"/>
<path d="M128.544 39.482C128.073 41.8979 130.207 43.0959 131.763 43.3382C132.673 43.6939 135.376 44.3499 138.907 44.1279C140.104 43.9995 141.555 42.9387 137.782 39.7231L134.574 37.1382C131.248 34.648 129.168 37.6632 128.544 39.482Z" stroke="#FF1A1A"/>
</g>
<path d="M67.4835 197.805C65.3978 199.112 65.9806 201.488 66.8666 202.79C67.2286 203.698 68.596 206.12 71.1704 208.547C72.082 209.333 73.8478 209.668 73.6187 204.716L73.3145 200.607C72.8609 196.477 69.2382 197.018 67.4835 197.805Z" fill="#FF1A1A" stroke="#FF1A1A"/>
<g filter="url(#filter4_d_44_69)">
<path d="M53.2473 225.241C54.2554 227.486 56.6896 227.235 58.1007 226.536C59.0494 226.302 61.6361 225.28 64.3935 223.063C65.2976 222.268 65.8717 220.565 60.9353 220.112L56.8235 219.849C52.6703 219.732 52.7089 223.395 53.2473 225.241Z" fill="#FF1A1A"/>
<path d="M53.2473 225.241C54.2554 227.486 56.6896 227.235 58.1007 226.536C59.0494 226.302 61.6361 225.28 64.3935 223.063C65.2976 222.268 65.8717 220.565 60.9353 220.112L56.8235 219.849C52.6703 219.732 52.7089 223.395 53.2473 225.241Z" stroke="#FF1A1A"/>
</g>
<g filter="url(#filter5_d_44_69)">
<path d="M101.898 225.53C102.027 223.072 99.7477 222.183 98.1731 222.16C97.2224 221.934 94.4546 221.661 90.9888 222.372C89.8213 222.666 88.5321 223.918 92.7156 226.577L96.2527 228.69C99.8927 230.693 101.533 227.418 101.898 225.53Z" fill="#FF1A1A"/>
<path d="M101.898 225.53C102.027 223.072 99.7477 222.183 98.1731 222.16C97.2224 221.934 94.4546 221.661 90.9888 222.372C89.8213 222.666 88.5321 223.918 92.7156 226.577L96.2527 228.69C99.8927 230.693 101.533 227.418 101.898 225.53Z" stroke="#FF1A1A"/>
</g>
<defs>
<filter id="filter0_d_44_69" x="23.3843" y="36.4083" width="242.904" height="209.999" filterUnits="userSpaceOnUse" color-interpolation-filters="sRGB">
<feFlood flood-opacity="0" result="BackgroundImageFix"/>
<feColorMatrix in="SourceAlpha" type="matrix" values="0 0 0 0 0 0 0 0 0 0 0 0 0 0 0 0 0 0 127 0" result="hardAlpha"/>
<feOffset dy="4"/>
<feGaussianBlur stdDeviation="2"/>
<feComposite in2="hardAlpha" operator="out"/>
<feColorMatrix type="matrix" values="0 0 0 0 0 0 0 0 0 0 0 0 0 0 0 0 0 0 0.25 0"/>
<feBlend mode="normal" in2="BackgroundImageFix" result="effect1_dropShadow_44_69"/>
<feBlend mode="normal" in="SourceGraphic" in2="effect1_dropShadow_44_69" result="shape"/>
</filter>
<filter id="filter1_d_44_69" x="23.3843" y="102.475" width="84.6594" height="79.2629" filterUnits="userSpaceOnUse" color-interpolation-filters="sRGB">
<feFlood flood-opacity="0" result="BackgroundImageFix"/>
<feColorMatrix in="SourceAlpha" type="matrix" values="0 0 0 0 0 0 0 0 0 0 0 0 0 0 0 0 0 0 127 0" result="hardAlpha"/>
<feOffset dy="4"/>
<feGaussianBlur stdDeviation="2"/>
<feComposite in2="hardAlpha" operator="out"/>
<feColorMatrix type="matrix" values="0 0 0 0 0 0 0 0 0 0 0 0 0 0 0 0 0 0 0.25 0"/>
<feBlend mode="normal" in2="BackgroundImageFix" result="effect1_dropShadow_44_69"/>
<feBlend mode="normal" in="SourceGraphic" in2="effect1_dropShadow_44_69" result="shape"/>
</filter>
<filter id="filter2_d_44_69" x="160.076" y="43.8391" width="21.1689" height="16.1283" filterUnits="userSpaceOnUse" color-interpolation-filters="sRGB">
<feFlood flood-opacity="0" result="BackgroundImageFix"/>
<feColorMatrix in="SourceAlpha" type="matrix" values="0 0 0 0 0 0 0 0 0 0 0 0 0 0 0 0 0 0 127 0" result="hardAlpha"/>
<feOffset dy="4"/>
<feGaussianBlur stdDeviation="2"/>
<feComposite in2="hardAlpha" operator="out"/>
<feColorMatrix type="matrix" values="0 0 0 0 0 0 0 0 0 0 0 0 0 0 0 0 0 0 0.25 0"/>
<feBlend mode="normal" in2="BackgroundImageFix" result="effect1_dropShadow_44_69"/>
<feBlend mode="normal" in="SourceGraphic" in2="effect1_dropShadow_44_69" result="shape"/>
</filter>
<filter id="filter3_d_44_69" x="123.977" y="35.6937" width="20.7338" height="16.9785" filterUnits="userSpaceOnUse" color-interpolation-filters="sRGB">
<feFlood flood-opacity="0" result="BackgroundImageFix"/>
<feColorMatrix in="SourceAlpha" type="matrix" values="0 0 0 0 0 0 0 0 0 0 0 0 0 0 0 0 0 0 127 0" result="hardAlpha"/>
<feOffset dy="4"/>
<feGaussianBlur stdDeviation="2"/>
<feComposite in2="hardAlpha" operator="out"/>
<feColorMatrix type="matrix" values="0 0 0 0 0 0 0 0 0 0 0 0 0 0 0 0 0 0 0.25 0"/>
<feBlend mode="normal" in2="BackgroundImageFix" result="effect1_dropShadow_44_69"/>
<feBlend mode="normal" in="SourceGraphic" in2="effect1_dropShadow_44_69" result="shape"/>
</filter>
<filter id="filter4_d_44_69" x="48.493" y="219.347" width="21.0068" height="16.1819" filterUnits="userSpaceOnUse" color-interpolation-filters="sRGB">
<feFlood flood-opacity="0" result="BackgroundImageFix"/>
<feColorMatrix in="SourceAlpha" type="matrix" values="0 0 0 0 0 0 0 0 0 0 0 0 0 0 0 0 0 0 127 0" result="hardAlpha"/>
<feOffset dy="4"/>
<feGaussianBlur stdDeviation="2"/>
<feComposite in2="hardAlpha" operator="out"/>
<feColorMatrix type="matrix" values="0 0 0 0 0 0 0 0 0 0 0 0 0 0 0 0 0 0 0.25 0"/>
<feBlend mode="normal" in2="BackgroundImageFix" result="effect1_dropShadow_44_69"/>
<feBlend mode="normal" in="SourceGraphic" in2="effect1_dropShadow_44_69" result="shape"/>
</filter>
<filter id="filter5_d_44_69" x="85.3417" y="221.414" width="21.0618" height="16.4021" filterUnits="userSpaceOnUse" color-interpolation-filters="sRGB">
<feFlood flood-opacity="0" result="BackgroundImageFix"/>
<feColorMatrix in="SourceAlpha" type="matrix" values="0 0 0 0 0 0 0 0 0 0 0 0 0 0 0 0 0 0 127 0" result="hardAlpha"/>
<feOffset dy="4"/>
<feGaussianBlur stdDeviation="2"/>
<feComposite in2="hardAlpha" operator="out"/>
<feColorMatrix type="matrix" values="0 0 0 0 0 0 0 0 0 0 0 0 0 0 0 0 0 0 0.25 0"/>
<feBlend mode="normal" in2="BackgroundImageFix" result="effect1_dropShadow_44_69"/>
<feBlend mode="normal" in="SourceGraphic" in2="effect1_dropShadow_44_69" result="shape"/>
</filter>
</defs>
</svg>
